<svg xmlns="http://www.w3.org/2000/svg" viewBox="160 182 760 760">
  <g fill="#8C181B">
    <circle cx="539.16" cy="552.44" r="166.18"/>
    <path d="M710.42 340.85l-49.19 62.66c41.77 34.77 68.34 87.03 68.34 145.47
      0 104.68-85.25 189.55-190.41 189.55s-190.41-84.86-190.41-189.55
      85.25-189.55 190.41-189.55c8.61 0 17.1.57 25.41 1.68l8.25-79.31
      c-10.75-1.32-21.69-1.99-32.79-1.99-148.18 0-268.31 120.12-268.31 268.31
      s120.12 268.31 268.31 268.31 268.31-120.12 268.31-268.31
      c0-83.38-38.13-157.96-97.92-207.16z"/>
    <path d="M539.6 248.64c165.29 0 295.58 138.67 299.9 302.93l80.43 3.87
      C916.45 348.6 747.69 182 540.03 182c-209.84 0-379.96 170.11-379.96 379.96
      0 39.25 5.95 77.11 17.01 112.72 21.27-8.91 52.91-22.17 72.3-30.28
      -9.11-28.89-14.01-59.63-14.01-91.53
      0-168.02 136.21-304.23 304.23-304.23z
      M539.6 857.09c-70.08 0-134.64-23.7-186.07-63.53l-54.1 60.07
      c61.28 42.34 160.5 88.28 240.61 88.28
      149.71 0 279.21-86.6 341.12-212.44l-73.75-32.14
      C755.97 792.47 655.33 857.09 539.6 857.09z"/>
  </g>
</svg>

